<svg id="EGP_Logo_Primary_RGB" data-name="EGP Logo Primary RGB" xmlns="http://www.w3.org/2000/svg" xmlns:xlink="http://www.w3.org/1999/xlink" viewBox="0 0 283.46 142.12"><defs><style>.cls-1{fill:url(#linear-gradient);}.cls-2{fill:url(#linear-gradient-2);}.cls-3{fill:url(#linear-gradient-3);}.cls-4{fill:url(#linear-gradient-4);}.cls-5{fill:url(#linear-gradient-5);}.cls-6{fill:#c6c6c6;}.cls-7{fill:url(#linear-gradient-6);}.cls-8{fill:url(#linear-gradient-7);}.cls-9{fill:url(#linear-gradient-8);}.cls-10{fill:url(#linear-gradient-9);}.cls-11{fill:url(#linear-gradient-10);}.cls-12{fill:url(#linear-gradient-11);}.cls-13{fill:url(#linear-gradient-12);}.cls-14{fill:url(#linear-gradient-13);}.cls-15{fill:url(#linear-gradient-14);}.cls-16{fill:url(#linear-gradient-15);}.cls-17{fill:url(#linear-gradient-16);}.cls-18{fill:url(#linear-gradient-17);}.cls-19{fill:url(#linear-gradient-18);}.cls-20{fill:url(#linear-gradient-19);}.cls-21{fill:#008c5a;}</style><linearGradient id="linear-gradient" x1="266.86" y1="41.3" x2="266.86" y2="76.46" gradientUnits="userSpaceOnUse"><stop offset="0" stop-color="#008c5a"/><stop offset="1" stop-color="#73b964"/></linearGradient><linearGradient id="linear-gradient-2" x1="271.53" y1="86.97" x2="282.26" y2="95.82" gradientUnits="userSpaceOnUse"><stop offset="0" stop-color="#73b964"/><stop offset="0.12" stop-color="#73b964" stop-opacity="0.97"/><stop offset="0.27" stop-color="#73b964" stop-opacity="0.89"/><stop offset="0.44" stop-color="#73b964" stop-opacity="0.75"/><stop offset="0.61" stop-color="#73b964" stop-opacity="0.56"/><stop offset="0.8" stop-color="#73b964" stop-opacity="0.32"/><stop offset="0.99" stop-color="#73b964" stop-opacity="0.02"/><stop offset="1" stop-color="#73b964" stop-opacity="0"/></linearGradient><linearGradient id="linear-gradient-3" x1="101.78" y1="41.58" x2="128.75" y2="41.58" gradientUnits="userSpaceOnUse"><stop offset="0" stop-color="#008c5a"/><stop offset="1" stop-color="#32a959"/></linearGradient><linearGradient id="linear-gradient-4" x1="144.34" y1="38.5" x2="144.34" y2="59.25" gradientUnits="userSpaceOnUse"><stop offset="0.01" stop-color="#32a959"/><stop offset="0.17" stop-color="#41b259"/><stop offset="0.33" stop-color="#55be5a"/><stop offset="0.4" stop-color="#55be5a" stop-opacity="0.94"/><stop offset="0.53" stop-color="#55be5a" stop-opacity="0.79"/><stop offset="0.69" stop-color="#55be5a" stop-opacity="0.55"/><stop offset="0.89" stop-color="#55be5a" stop-opacity="0.21"/><stop offset="1" stop-color="#55be5a" stop-opacity="0"/></linearGradient><linearGradient id="linear-gradient-5" x1="153.74" y1="54.58" x2="154.34" y2="60.66" gradientUnits="userSpaceOnUse"><stop offset="0" stop-color="#e94986"/><stop offset="1" stop-color="#e94986" stop-opacity="0"/></linearGradient><linearGradient id="linear-gradient-6" x1="71.79" y1="53.47" x2="64.44" y2="40.83" gradientUnits="userSpaceOnUse"><stop offset="0" stop-color="#008c5a"/><stop offset="1" stop-color="#1d975d"/></linearGradient><linearGradient id="linear-gradient-7" x1="61.49" y1="37.67" x2="42.02" y2="29.63" gradientUnits="userSpaceOnUse"><stop offset="0" stop-color="#1d975d"/><stop offset="1" stop-color="#289b5d"/></linearGradient><linearGradient id="linear-gradient-8" x1="17.15" y1="38" x2="36.77" y2="29.65" gradientUnits="userSpaceOnUse"><stop offset="0" stop-color="#3da45f"/><stop offset="1" stop-color="#289b5d"/></linearGradient><linearGradient id="linear-gradient-9" x1="5.68" y1="60.86" x2="13.73" y2="41.55" gradientUnits="userSpaceOnUse"><stop offset="0" stop-color="#50ab60"/><stop offset="1" stop-color="#3da45f"/></linearGradient><linearGradient id="linear-gradient-10" x1="5.62" y1="66.45" x2="13.97" y2="85.92" gradientUnits="userSpaceOnUse"><stop offset="0" stop-color="#50ab60"/><stop offset="1" stop-color="#67b462"/></linearGradient><linearGradient id="linear-gradient-11" x1="15.81" y1="88.84" x2="38.59" y2="98.16" gradientUnits="userSpaceOnUse"><stop offset="0" stop-color="#67b462"/><stop offset="0.96" stop-color="#92c886"/></linearGradient><linearGradient id="linear-gradient-12" x1="39.53" y1="106.63" x2="62.61" y2="81.19" gradientUnits="userSpaceOnUse"><stop offset="0.33" stop-color="#92c886"/><stop offset="0.4" stop-color="#92c886" stop-opacity="0.94"/><stop offset="0.52" stop-color="#92c886" stop-opacity="0.79"/><stop offset="0.69" stop-color="#92c886" stop-opacity="0.55"/><stop offset="0.89" stop-color="#92c886" stop-opacity="0.21"/><stop offset="1" stop-color="#92c886" stop-opacity="0"/></linearGradient><linearGradient id="linear-gradient-13" x1="243.01" y1="53.47" x2="235.65" y2="40.83" xlink:href="#linear-gradient-6"/><linearGradient id="linear-gradient-14" x1="232.71" y1="37.67" x2="213.24" y2="29.63" xlink:href="#linear-gradient-7"/><linearGradient id="linear-gradient-15" x1="188.37" y1="38" x2="207.98" y2="29.65" xlink:href="#linear-gradient-8"/><linearGradient id="linear-gradient-16" x1="176.9" y1="60.86" x2="184.94" y2="41.55" xlink:href="#linear-gradient-9"/><linearGradient id="linear-gradient-17" x1="176.84" y1="66.45" x2="185.19" y2="85.92" xlink:href="#linear-gradient-10"/><linearGradient id="linear-gradient-18" x1="187.02" y1="88.84" x2="209.81" y2="98.16" xlink:href="#linear-gradient-11"/><linearGradient id="linear-gradient-19" x1="210.75" y1="106.63" x2="233.83" y2="81.19" xlink:href="#linear-gradient-12"/></defs><title>EGP_Logo_Primary_RGB</title><rect class="cls-1" x="261" y="41.03" width="11.72" height="35.44"/><path class="cls-2" d="M273,76.43c0,8.46,3.9,12.11,10.74,16.78L277,102.82c-10-6.57-15.77-14-15.77-26.39Z" transform="translate(-0.27 -0.14)"/><path class="cls-3" d="M127.88,24.33A37,37,0,0,0,101.78,35v23.8c1.76-9.41,10.1-22.78,26.09-22.78.29,0,.59,0,.88,0V24.34Z" transform="translate(-0.27 -0.14)"/><path class="cls-4" d="M160.46,60.65H148.73V56.8a20.68,20.68,0,0,0-20.51-20.75V24.33A32.43,32.43,0,0,1,160.46,56.8Z" transform="translate(-0.27 -0.14)"/><line class="cls-5" x1="160.19" y1="60.52" x2="148.46" y2="60.52"/><rect class="cls-6" x="89.78" y="27.38" width="11.72" height="41.03"/><rect class="cls-6" x="261" width="11.72" height="41.03"/><rect class="cls-6" x="148.46" y="60.52" width="11.72" height="41.03"/><path class="cls-7" d="M66.35,56.82h12A39.19,39.19,0,0,0,67.11,35.55l-8.22,8.36A27.5,27.5,0,0,1,66.35,56.82Z" transform="translate(-0.27 -0.14)"/><path class="cls-8" d="M39.55,36a27.63,27.63,0,0,1,19.51,8l8.29-8.28a39.29,39.29,0,0,0-27.8-11.49h-.34L39.31,36Z" transform="translate(-0.27 -0.14)"/><path class="cls-9" d="M39.55,36V24.31a39.18,39.18,0,0,0-28,11.75l8.37,8.22A27.44,27.44,0,0,1,39.55,36Z" transform="translate(-0.27 -0.14)"/><path class="cls-10" d="M12,63.59a27.49,27.49,0,0,1,8.07-19.48l-8.28-8.29A39.16,39.16,0,0,0,.27,63.59v.35L12,63.83Z" transform="translate(-0.27 -0.14)"/><path class="cls-11" d="M12,63.59H.27A39.16,39.16,0,0,0,12,91.61l8.22-8.36A27.47,27.47,0,0,1,12,63.59Z" transform="translate(-0.27 -0.14)"/><path class="cls-12" d="M39.55,91.15a27.47,27.47,0,0,1-19.49-8.07l-8.28,8.29a39.12,39.12,0,0,0,27.77,11.51h.34l-.1-11.72Z" transform="translate(-0.27 -0.14)"/><path class="cls-13" d="M61.41,80.37A27.47,27.47,0,0,1,39.55,91.15v11.73A39.25,39.25,0,0,0,70.72,87.51Z" transform="translate(-0.27 -0.14)"/><rect class="cls-6" x="37.03" y="56.68" width="41.03" height="11.72"/><path class="cls-14" d="M237.57,56.82h12a39.14,39.14,0,0,0-11.23-21.27l-8.21,8.36A27.5,27.5,0,0,1,237.57,56.82Z" transform="translate(-0.27 -0.14)"/><path class="cls-15" d="M210.77,36a27.63,27.63,0,0,1,19.51,8l8.29-8.28a39.31,39.31,0,0,0-27.8-11.49h-.34l.1,11.72Z" transform="translate(-0.27 -0.14)"/><path class="cls-16" d="M210.77,36V24.31a39.18,39.18,0,0,0-28,11.75l8.36,8.22A27.47,27.47,0,0,1,210.77,36Z" transform="translate(-0.27 -0.14)"/><path class="cls-17" d="M183.21,63.59a27.49,27.49,0,0,1,8.07-19.48L183,35.82a39.15,39.15,0,0,0-11.5,27.77v.35l11.72-.11Z" transform="translate(-0.27 -0.14)"/><path class="cls-18" d="M183.21,63.59H171.49a39.16,39.16,0,0,0,11.75,28l8.21-8.36A27.51,27.51,0,0,1,183.21,63.59Z" transform="translate(-0.27 -0.14)"/><path class="cls-19" d="M210.77,91.15a27.47,27.47,0,0,1-19.49-8.07L183,91.37a39.16,39.16,0,0,0,27.78,11.51h.34L211,91.15Z" transform="translate(-0.27 -0.14)"/><path class="cls-20" d="M232.63,80.37a27.49,27.49,0,0,1-21.86,10.78v11.73a39.23,39.23,0,0,0,31.16-15.37Z" transform="translate(-0.27 -0.14)"/><rect class="cls-6" x="208.25" y="56.68" width="41.03" height="11.72"/><path class="cls-21" d="M153.45,133.36v7.85a15.67,15.67,0,0,1-6,1c-4.57,0-7.15-3.58-7.15-8.74,0-4.32,2.3-8.74,7.15-8.74,2.79,0,5.65,1.51,5.91,4.49h-1.72c-.31-2.14-2.19-3.09-4.19-3.09-4,0-5.53,3.85-5.53,7.34,0,4.28,1.79,7.34,6.32,7.34a13.74,13.74,0,0,0,3.72-.69v-5.42h-4.2v-1.39Z" transform="translate(-0.27 -0.14)"/><path class="cls-21" d="M158.82,141.91h-1.39v-9c0-.91-.07-1.84-.12-2.63h1.44l.07,1.72h.05a3,3,0,0,1,2.63-2.07,12.9,12.9,0,0,1,1.39,0v1.35a8.39,8.39,0,0,0-.86-.1c-2.07,0-3.16,1.49-3.21,3.72Z" transform="translate(-0.27 -0.14)"/><path class="cls-21" d="M166,136.4c.05,2.49,1.19,4.58,4.05,4.58a3.48,3.48,0,0,0,3.37-2.79h1.46a4.9,4.9,0,0,1-5.28,4.07c-3.48,0-5.11-3-5.11-6.18s1.74-6.19,5.21-6.19c3.9,0,5.32,2.86,5.32,6.51Zm7.51-1.28c-.16-2.25-1.37-4-3.79-4s-3.49,1.91-3.67,4Z" transform="translate(-0.27 -0.14)"/><path class="cls-21" d="M178.91,136.4c0,2.49,1.18,4.58,4,4.58a3.48,3.48,0,0,0,3.37-2.79h1.46a4.89,4.89,0,0,1-5.27,4.07c-3.49,0-5.11-3-5.11-6.18s1.74-6.19,5.2-6.19c3.91,0,5.32,2.86,5.32,6.51Zm7.5-1.28c-.16-2.25-1.37-4-3.79-4s-3.48,1.91-3.67,4Z" transform="translate(-0.27 -0.14)"/><path class="cls-21" d="M192.41,141.91H191v-9c0-.91-.07-1.84-.12-2.63h1.44l.07,1.72.05,0a4,4,0,0,1,3.65-2.12c3.81,0,4.11,3.37,4.11,4.72v7.3h-1.39v-7.53a2.89,2.89,0,0,0-3.07-3.21c-2.3,0-3.35,1.93-3.35,4Z" transform="translate(-0.27 -0.14)"/><path class="cls-21" d="M210.87,141.91V125.13h4.2c3.23-.07,6.86.74,6.86,4.74s-3.63,4.81-6.86,4.74h-2.69v7.3Zm1.51-8.69h3.67c2.25,0,4.25-.72,4.25-3.35s-2-3.35-4.25-3.35h-3.67Z" transform="translate(-0.27 -0.14)"/><path class="cls-21" d="M233.37,136.08c0,3.06-1.72,6.18-5.44,6.18s-5.44-3.12-5.44-6.18,1.72-6.19,5.44-6.19S233.37,133,233.37,136.08Zm-5.44-4.91c-2.81,0-3.93,2.75-3.93,4.91s1.12,4.9,3.93,4.9,3.92-2.74,3.92-4.9S230.74,131.17,227.93,131.17Z" transform="translate(-0.27 -0.14)"/><path class="cls-21" d="M239.32,140.07h0l3.54-9.83h1.65L248,140h0l3.37-9.74h1.54l-4.35,11.67h-1.32l-3.58-10.06h-.05L240,141.91h-1.42l-4.27-11.67h1.53Z" transform="translate(-0.27 -0.14)"/><path class="cls-21" d="M255.5,136.4c0,2.49,1.18,4.58,4,4.58a3.48,3.48,0,0,0,3.37-2.79h1.46a4.89,4.89,0,0,1-5.27,4.07c-3.49,0-5.11-3-5.11-6.18s1.74-6.19,5.2-6.19c3.9,0,5.32,2.86,5.32,6.51Zm7.5-1.28c-.16-2.25-1.37-4-3.79-4-2.27,0-3.48,1.91-3.67,4Z" transform="translate(-0.27 -0.14)"/><path class="cls-21" d="M269,141.91h-1.39v-9c0-.91-.07-1.84-.12-2.63h1.44L269,132h.05a3,3,0,0,1,2.62-2.07,13.09,13.09,0,0,1,1.4,0v1.35a8.39,8.39,0,0,0-.86-.1c-2.07,0-3.16,1.49-3.21,3.72Z" transform="translate(-0.27 -0.14)"/></svg>